<?xml version="1.0" encoding="UTF-8" standalone="no"?>
<!DOCTYPE svg PUBLIC "-//W3C//DTD SVG 1.1//EN" "http://www.w3.org/Graphics/SVG/1.1/DTD/svg11.dtd">
<!-- Created with Vectornator (http://vectornator.io/) -->
<svg height="100%" stroke-miterlimit="10" style="fill-rule:nonzero;clip-rule:evenodd;stroke-linecap:round;stroke-linejoin:round;" version="1.1" viewBox="0 0 865.76 682.89" width="100%" xml:space="preserve" xmlns="http://www.w3.org/2000/svg" xmlns:xlink="http://www.w3.org/1999/xlink">
<defs/>
<g id="Untitled">
<path d="M590.55 376.74L543.47 510.1L555.94 510.1L600.19 380.33L590.55 376.74Z" fill="#ffffff" fill-rule="nonzero" opacity="1" stroke="#002346" stroke-linecap="butt" stroke-linejoin="miter" stroke-width="1"/>
<path d="M609.92 383.78L600.19 380.33L555.94 510.1L567.38 507.83L609.92 383.78Z" fill="#e5e6e7" fill-rule="nonzero" opacity="1" stroke="#002346" stroke-linecap="butt" stroke-linejoin="miter" stroke-width="1"/>
<path d="M422.83 517.74L459.96 510.1C459.96 510.1 467.88 510.1 468.05 517.74C468.05 517.74 468.64 523.39 462.18 526.45L425.26 533.04L363.02 531.82C363.02 531.82 356.02 531.19 356.49 524.1C356.49 524.1 356.49 520.9 360.24 517.74C360.24 517.74 422.83 517.74 422.83 517.74Z" fill="#e5e6e7" fill-rule="nonzero" opacity="1" stroke="#002346" stroke-linecap="butt" stroke-linejoin="miter" stroke-width="1"/>
<path d="M364.33 522.71L423.62 522.71L454.71 518.15C456.05 517.95 457.3 518.88 457.5 520.22C457.52 520.34 457.53 520.46 457.53 520.58L457.53 520.58C457.53 521.8 456.64 522.84 455.43 523.02L424.43 527.63L364.33 527.63C362.97 527.63 361.87 526.53 361.87 525.17L361.87 525.17C361.87 523.81 362.97 522.71 364.33 522.71Z" fill="#ffffff" fill-rule="nonzero" opacity="1" stroke="#002346" stroke-linecap="butt" stroke-linejoin="miter" stroke-width="1"/>
<path d="M420.44 502.63L458.73 495.43C458.73 495.43 466.53 494.95 467.82 500.85C467.82 500.85 470.17 509.17 459.96 510.1L422.83 517.74L359.92 517.74C352.92 517.27 348.92 509.01 353.2 503.39C354.12 502.05 355.55 501.14 357.15 500.87C357.15 500.87 420.44 502.63 420.44 502.63Z" fill="#e5e6e7" fill-rule="nonzero" opacity="1" stroke="#002346" stroke-linecap="butt" stroke-linejoin="miter" stroke-width="1"/>
<path d="M421.26 507.83L455.89 501.63C457.39 501.36 458.83 502.35 459.1 503.85C459.1 503.9 459.12 503.94 459.12 503.99L459.12 503.99C459.32 505.45 458.35 506.81 456.91 507.09L422.21 513.85L360.91 513.85C358.99 513.85 357.43 512.3 357.42 510.38L357.42 510.38C357.42 508.44 358.98 506.88 360.91 506.88C360.93 506.88 360.94 506.88 360.96 506.88L421.26 507.83Z" fill="#ffffff" fill-rule="nonzero" opacity="1" stroke="#002346" stroke-linecap="butt" stroke-linejoin="miter" stroke-width="1"/>
<path d="M459.58 292.93L446.13 333.75L449.89 334.59L463.69 294.14C464.03 293.01 463.39 291.81 462.26 291.47C462.17 291.44 462.08 291.42 461.99 291.41L461.99 291.41C460.92 291.23 459.88 291.88 459.58 292.93Z" fill="#1dabe0" fill-rule="nonzero" opacity="1" stroke="#002346" stroke-linecap="butt" stroke-linejoin="miter" stroke-width="1"/>
<path d="M535.67 635.9C535.67 622.844 546.254 612.26 559.31 612.26C572.366 612.26 582.95 622.844 582.95 635.9C582.95 648.956 572.366 659.54 559.31 659.54C546.254 659.54 535.67 648.956 535.67 635.9Z" fill="#002346" fill-rule="nonzero" opacity="1" stroke="#002346" stroke-linecap="butt" stroke-linejoin="miter" stroke-width="1"/>
<path d="M541.37 635.9C541.37 625.992 549.402 617.96 559.31 617.96C569.218 617.96 577.25 625.992 577.25 635.9C577.25 645.808 569.218 653.84 559.31 653.84C549.402 653.84 541.37 645.808 541.37 635.9Z" fill="#ffffff" fill-rule="nonzero" opacity="1" stroke="#002346" stroke-linecap="butt" stroke-linejoin="miter" stroke-width="1"/>
<path d="M550.24 636.71C550.24 632.143 553.943 628.44 558.51 628.44C563.077 628.44 566.78 632.143 566.78 636.71C566.78 641.277 563.077 644.98 558.51 644.98C553.943 644.98 550.24 641.277 550.24 636.71Z" fill="#002346" fill-rule="nonzero" opacity="1" stroke="#002346" stroke-linecap="butt" stroke-linejoin="miter" stroke-width="1"/>
<path d="M351.55 635.9C351.55 622.844 362.134 612.26 375.19 612.26C388.246 612.26 398.83 622.844 398.83 635.9C398.83 648.956 388.246 659.54 375.19 659.54C362.134 659.54 351.55 648.956 351.55 635.9Z" fill="#002346" fill-rule="nonzero" opacity="1" stroke="#002346" stroke-linecap="butt" stroke-linejoin="miter" stroke-width="1"/>
<path d="M357.25 635.9C357.25 625.992 365.282 617.96 375.19 617.96C385.098 617.96 393.13 625.992 393.13 635.9C393.13 645.808 385.098 653.84 375.19 653.84C365.282 653.84 357.25 645.808 357.25 635.9Z" fill="#ffffff" fill-rule="nonzero" opacity="1" stroke="#002346" stroke-linecap="butt" stroke-linejoin="miter" stroke-width="1"/>
<path d="M366.12 636.71C366.12 632.143 369.823 628.44 374.39 628.44C378.957 628.44 382.66 632.143 382.66 636.71C382.66 641.277 378.957 644.98 374.39 644.98C369.823 644.98 366.12 641.277 366.12 636.71Z" fill="#002346" fill-rule="nonzero" opacity="1" stroke="#002346" stroke-linecap="butt" stroke-linejoin="miter" stroke-width="1"/>
<path d="M648.24 342.79L651.99 344.67C651.99 344.67 669.66 316.29 673.67 311.47C673.67 311.47 690.19 295.41 683.27 283.37C683.13 287.56 682.21 291.69 680.55 295.54C678.63 299.93 676.42 302.26 671.37 308.66C671.37 308.66 668.89 311.79 661.93 321.16C656.85 328.03 652.27 335.26 648.24 342.79Z" fill="#ffffff" fill-rule="nonzero" opacity="1" stroke="#002346" stroke-linecap="butt" stroke-linejoin="miter" stroke-width="1"/>
<path d="M604.85 327.78L633.25 316.29L634.86 333.42C634.86 333.42 618.68 345.66 607.23 349.58L604.85 327.78Z" fill="#f1b2c0" fill-rule="nonzero" opacity="1" stroke="#002346" stroke-linecap="butt" stroke-linejoin="miter" stroke-width="1"/>
<path d="M512.37 469.35L532.9 488.17L548.32 476.99L525.74 453.03L512.37 469.35Z" fill="#f1b2c0" fill-rule="nonzero" opacity="1" stroke="#002346" stroke-linecap="butt" stroke-linejoin="miter" stroke-width="1"/>
<path d="M345.79 463.17C344.37 463.76 343.46 465.16 343.51 466.7C343.53 468.93 344.13 471.13 345.27 473.05C346.37 474.7 348.06 475.86 349.99 476.3C351.06 476.57 352.39 477.24 351.99 478.93C351.82 479.61 351.46 480.23 350.94 480.7C349.2 482.35 344.47 488.33 363.8 490.98C363.8 490.98 379.28 492.85 387.67 488.17C382.32 481 378.61 472.75 376.8 463.99C376.8 463.99 361.5 459.86 353.51 461.56C350.87 461.71 348.27 462.25 345.79 463.17Z" fill="#e11d48" fill-rule="nonzero" opacity="1" stroke="#002346" stroke-linecap="butt" stroke-linejoin="miter" stroke-width="1"/>
<path d="M408.87 415.65C408.87 439.1 401.74 448.51 401.74 448.52C393.13 465.15 376.8 463.99 376.8 463.99C376.8 463.99 383.73 507.45 420.45 502.63C420.45 502.63 448.81 506 479.89 441.88C492.86 453.8 506.19 465.86 511.57 470.06C511.57 470.06 522.54 459.23 526.77 453C526.77 453 511.44 433.66 496.2 412.38C503.09 399.17 515.67 394.39 518.55 384.22C518.55 384.22 575.55 364.22 610.55 350.22L604.66 325.82C604.66 325.82 549.6 344.73 508.16 350.01C508.16 350.01 499.79 351.34 492.03 359.46L473.78 378.53C472.37 376.1 471.12 373.8 470.06 371.68C470.06 371.68 457.82 343.24 438.54 353.62C438.54 353.62 420.37 354.55 408.88 415.62" fill="#1dabe0" fill-rule="nonzero" opacity="1" stroke="#002346" stroke-linecap="butt" stroke-linejoin="miter" stroke-width="1"/>
<path d="M496.2 412.39L479.89 388.39" fill="none" opacity="1" stroke="#002346" stroke-linecap="round" stroke-linejoin="round" stroke-width="1"/>
<path d="M479.89 441.88L440.57 407.87" fill="none" opacity="1" stroke="#002346" stroke-linecap="round" stroke-linejoin="round" stroke-width="1"/>
<path d="M639.14 309.87L633.25 316.29L634.86 333.42C634.86 333.42 639.06 337.11 641.55 333.42C641.55 333.42 644.31 320.42 644.31 314.23C644.31 314.23 640.77 308.1 639.14 309.87Z" fill="#e5e6e7" fill-rule="nonzero" opacity="1" stroke="#002346" stroke-linecap="butt" stroke-linejoin="miter" stroke-width="1"/>
<path d="M643.96 307.99C643.96 307.99 637.27 301.3 639.14 309.87C639.14 309.87 644.48 311.33 643.96 316.29L641.55 333.42C641.55 333.42 639.41 336.63 634.86 333.42L632.02 335.53C632.02 335.53 640.26 341.99 648.29 342.79C648.29 342.79 663.76 317.5 672.83 307.52C674.46 305.77 675.92 303.86 677.19 301.84C680.06 297.14 684.37 288.91 683.32 283.37C683.2 282.83 682.66 282.5 682.12 282.62C681.96 282.66 681.81 282.73 681.69 282.84C677.02 287.18 659.02 303.37 643.96 307.99Z" fill="#e11d48" fill-rule="nonzero" opacity="1" stroke="#002346" stroke-linecap="butt" stroke-linejoin="miter" stroke-width="1"/>
<path d="M555.94 483.6L548.32 476.99L532.9 488.17C532.9 488.17 534.09 494.44 539.9 493.76C539.85 493.76 554.08 490.21 555.94 483.6Z" fill="#e5e6e7" fill-rule="nonzero" opacity="1" stroke="#002346" stroke-linecap="butt" stroke-linejoin="miter" stroke-width="1"/>
<path d="M530.34 485.83C530.34 485.83 529.52 502.74 532.9 504.44L589.02 507.83C589.02 507.83 599.04 507.33 601.84 504.33C601.87 504.3 601.86 504.26 601.82 504.24C600.2 503.63 571.79 492.95 562.73 485.65C561.76 484.84 561.17 483.67 561.11 482.41L560.78 477.33C560.75 476.67 560.21 476.14 559.55 476.13C558.07 476.13 555.74 477.19 555.97 483.6C555.97 483.6 553.26 490.88 539.88 493.76C539.88 493.76 534.8 495.29 532.88 488.17L530.33 485.83L530.34 485.83Z" fill="#e11d48" fill-rule="nonzero" opacity="1" stroke="#002346" stroke-linecap="butt" stroke-linejoin="miter" stroke-width="1"/>
<path d="M532.9 504.44L532.9 509.54L582.35 512.15C585.64 512.35 588.94 512.11 592.17 511.42C596.55 510.42 601.6 508.44 601.86 504.33C601.86 504.31 601.84 504.29 601.82 504.3C601.35 504.69 596.68 508.28 584.43 507.55C584.43 507.55 532.9 504.44 532.9 504.44Z" fill="#ffffff" fill-rule="nonzero" opacity="1" stroke="#002346" stroke-linecap="butt" stroke-linejoin="miter" stroke-width="1"/>
<path d="M558.96 606.69L582.37 606.69C583.33 606.69 583.91 607.76 583.38 608.56L563.43 638.84C562.28 640.6 560.2 641.51 558.12 641.18L558.12 641.18C555.24 640.71 553.26 638.01 553.69 635.12L557.77 607.72C557.86 607.13 558.37 606.69 558.96 606.69Z" fill="#ffffff" fill-rule="nonzero" opacity="1" stroke="#002346" stroke-linecap="butt" stroke-linejoin="miter" stroke-width="1"/>
<path d="M380.28 599.23L395.1 599.23L395.1 599.23L395.1 606.69L395.1 606.69L380.28 606.69L380.28 606.69L380.28 599.23L380.28 599.23Z" fill="#e5e6e7" fill-rule="nonzero" opacity="1" stroke="#002346" stroke-linecap="butt" stroke-linejoin="miter" stroke-width="1"/>
<path d="M373.46 608.48L369.39 635.65C368.99 638.31 370.83 640.79 373.49 641.19C373.73 641.23 373.97 641.24 374.21 641.24L374.21 641.24C375.81 641.23 377.31 640.43 378.21 639.11L398.73 608.99C399.18 608.32 399 607.41 398.33 606.97C398.09 606.81 397.81 606.73 397.52 606.72L375.52 606.72C374.5 606.72 373.63 607.47 373.46 608.48Z" fill="#ffffff" fill-rule="nonzero" opacity="1" stroke="#002346" stroke-linecap="butt" stroke-linejoin="miter" stroke-width="1"/>
<path d="M461.43 301.91C461.13 301.8 460.8 301.96 460.68 302.26L456.87 311.78L458.06 306.43C458.3 305.37 457.39 304.39 456.31 304.55L456.31 304.55C454.19 306.41 452.97 309.09 452.97 311.91L452.71 324.3C452.68 325.79 452.42 327.26 451.94 328.67L449.92 334.6L446.16 333.76L447.51 329.67L446 329.34C445.41 329.25 444.83 329.1 444.27 328.9C442.82 328.44 442.02 326.89 442.48 325.44C442.84 324.31 443.88 323.54 445.07 323.53C445.56 323.53 445.87 323.94 446.16 324.45C446.66 325.34 447.97 325.24 448.37 324.31L448.37 324.31C448.45 324.13 448.49 323.94 448.48 323.75C448.37 321.8 447.02 320.12 445.12 319.6C438.48 317.89 435.59 322.79 435.59 322.79C430.8 330.59 440.08 341.19 440.08 341.19L435.59 354.72L438.59 353.64C438.59 353.64 445.64 350 450.22 351.71L450.86 341.55C459.86 337.6 462.86 316.33 463.75 307.55C463.9 303.41 462.31 302.25 461.43 301.92L461.43 301.91Z" fill="#f1b2c0" fill-rule="nonzero" opacity="1" stroke="#002346" stroke-linecap="butt" stroke-linejoin="miter" stroke-width="1"/>
<path d="M362.79 343.99C354.87 402.87 301.02 419.99 288.6 422.75C285.89 423.33 283.26 424.27 280.8 425.55C267.92 432.3 269.26 441.55 269.26 441.55C263.1 431.25 276.54 419.37 276.54 419.37C231.18 428.89 190.3 404.81 190.3 404.81C131.5 374.52 155.02 331.4 155.02 331.4C166.78 307.88 195.34 315.16 195.34 315.16C253.58 326.92 269.82 301.72 269.82 301.72C248.54 316.84 207.66 298.92 207.66 298.92C176.3 284.36 150.54 308.44 150.54 308.44C159.47 279.53 183.64 274.51 199.99 274.67C207.48 274.78 214.89 276.24 221.86 278.99C249.59 289.73 267.58 284.32 267.58 284.32C251.34 285.92 216.06 272.08 216.06 272.08C203.18 264.8 178.54 264.8 178.54 264.8C199.82 254.72 238.46 272.08 238.46 272.08C274.86 287.02 297.65 271.56 304.24 266C305.89 264.59 307.72 263.4 309.69 262.48C345.87 245.87 361.69 267.6 361.69 267.6C380.17 253.04 380.69 289.44 380.69 289.44L362.83 313.21C354.56 312.45 353.83 302.88 353.83 302.88C359.99 276 347.11 276.56 347.11 276.56C359.99 311.84 333.24 312.42 333.24 312.42" fill="#002346" fill-rule="nonzero" opacity="1" stroke="#002346" stroke-linecap="butt" stroke-linejoin="miter" stroke-width="1"/>
<path d="M331.32 351.35L328.6 326.87L330.3 325.87C330.3 325.87 332.59 331.87 342.21 335.31L331.32 351.35Z" fill="#f1b2c0" fill-rule="nonzero" opacity="1" stroke="#002346" stroke-linecap="butt" stroke-linejoin="miter" stroke-width="1"/>
<path d="M346.62 275.11L346.62 275.11C359.919 275.11 370.7 285.891 370.7 299.19L370.7 313.18C370.7 326.479 359.919 337.26 346.62 337.26L346.62 337.26C333.321 337.26 322.54 326.479 322.54 313.18L322.54 299.19C322.54 285.891 333.321 275.11 346.62 275.11Z" fill="#f1b2c0" fill-rule="nonzero" opacity="1" stroke="#002346" stroke-linecap="butt" stroke-linejoin="miter" stroke-width="1"/>
<path d="M313.77 287.9C313.77 287.9 319.83 264.04 349.32 265.53C349.32 265.53 368.41 296.17 325.54 304.23C308.54 304.23 327.29 294.62 313.77 287.9Z" fill="#002346" fill-rule="nonzero" opacity="1" stroke="#002346" stroke-linecap="butt" stroke-linejoin="miter" stroke-width="1"/>
<path d="M371.55 304.23C371.55 304.23 351.98 301.94 354.91 288.69C354.91 288.69 357.67 267.43 347.25 266.53C347.25 266.53 372.07 266.24 375.55 293.23C375.55 293.23 371.55 304.23 371.55 304.23Z" fill="#002346" fill-rule="nonzero" opacity="1" stroke="#002346" stroke-linecap="butt" stroke-linejoin="miter" stroke-width="1"/>
<path d="M379.95 371.69L416.1 385.89C416.1 385.89 411.93 400.35 411.1 405.08L393.86 402.58C393.86 402.58 396.02 383.93 379.95 371.69Z" fill="#f1b2c0" fill-rule="nonzero" opacity="1" stroke="#002346" stroke-linecap="butt" stroke-linejoin="miter" stroke-width="1"/>
<path d="M344.02 464.7C344.02 464.7 356.43 452.41 354.38 435.63C353.69 430.65 351.56 425.98 348.27 422.18C343.76 416.77 336.18 406.56 335.76 398.62C335.76 398.62 350.12 395.26 347.62 363.61L353.55 357.23C353.55 357.23 382.71 370.88 386.32 376.44C386.32 376.44 394.94 388.39 393.83 402.58L408.83 415.65C408.83 415.65 411.35 453.36 386.05 462.84C381.79 464.27 377.21 464.47 372.84 463.41C365.67 461.91 350.79 459.9 344.03 464.7L344.02 464.7Z" fill="#e11d48" fill-rule="nonzero" opacity="1" stroke="#002346" stroke-linecap="butt" stroke-linejoin="miter" stroke-width="1"/>
<path d="M327.29 399.08L605.3 415.15L605.3 500.52L425.25 532.63L365.45 532.96C360.22 532.99 355.68 529.35 354.56 524.24C354.56 524.24 327.29 399.08 327.29 399.08Z" fill="none" opacity="1" stroke="#002346" stroke-linecap="round" stroke-linejoin="round" stroke-width="1"/>
<path d="M335.4 408.51L399.4 540.23L461.28 540.23C462.89 540.23 464.2 541.54 464.2 543.15L464.2 543.15C464.2 544.76 462.89 546.07 461.28 546.07L371.74 546.07C366.32 546.03 361.02 547.75 356.66 550.97C351.51 554.83 346.58 561.5 347.41 572.76C348.3 581.34 353.61 588.82 361.41 592.49C365.33 594.36 369.62 595.32 373.96 595.29L581.42 595.29C597.16 595.29 609.92 608.05 609.92 623.79L609.92 628.52C609.92 629.67 608.99 630.6 607.84 630.6L607.83 630.6C606.68 630.6 605.75 629.67 605.75 628.52L605.75 628.52L605.75 626.15C605.75 612.18 594.41 600.85 580.44 600.85L580.44 600.85L580.44 606.85L564.73 606.85L564.87 599.23L369.02 599.23C364.1 599.26 359.28 597.78 355.23 594.99C347.2 589.56 342.42 580.47 342.5 570.78C342.4 559.89 347.01 552.69 352.31 548.01C358.28 542.81 365.95 539.96 373.87 540.01L393.77 540.01L335.51 419.09L305.5 357.17L309.54 354.23C309.54 354.23 335.4 408.51 335.4 408.51Z" fill="#e5e6e7" fill-rule="nonzero" opacity="1" stroke="#002346" stroke-linecap="butt" stroke-linejoin="miter" stroke-width="1"/>
<path d="M315.918 309.578C315.488 305.281 317.314 301.58 319.996 301.311C322.678 301.043 325.2 304.31 325.63 308.607C326.059 312.905 324.234 316.606 321.552 316.874C318.87 317.142 316.348 313.876 315.918 309.578Z" fill="#f1b2c0" fill-rule="nonzero" opacity="1" stroke="#002346" stroke-linecap="butt" stroke-linejoin="miter" stroke-width="1"/>
<path d="M321.94 355.1C321.94 355.1 364.23 314.01 383.51 281.75L402.02 197.59C402.02 197.59 396.08 181.27 399.02 172.38L401.4 150.67C401.55 149.34 402.75 148.37 404.08 148.52C404.67 148.59 405.21 148.86 405.61 149.3L409.51 153.61C411.58 155.89 412.71 158.88 412.68 161.96C412.59 169.74 412.47 184.24 412.74 184.24C412.97 184.24 415.45 175 421.33 173.01C423.12 172.4 424.98 173.77 424.98 175.66L424.98 175.73C424.98 176.61 424.56 177.42 423.87 177.95C421.85 179.51 417.69 183.68 416.83 192.03C416.83 192.03 416.83 194.66 413.45 198.62C412.5 199.73 411.94 201.13 411.82 202.59C410.85 214.59 406.17 268.2 398.29 289.54C398.29 289.54 367.52 344.04 340.45 371.85C340.51 371.85 325.66 365.48 321.95 355.1L321.94 355.1Z" fill="#f1b2c0" fill-rule="nonzero" opacity="1" stroke="#002346" stroke-linecap="butt" stroke-linejoin="miter" stroke-width="1"/>
<path d="M324.86 352.41C328 357.74 335.4 367.56 348.8 371.15C348.8 371.15 350.26 395.22 335.8 398.62C335.77 398.62 314.54 379.23 322.67 352.93C323.01 351.83 324.27 351.41 324.86 352.4L324.86 352.41Z" fill="#e11d48" fill-rule="nonzero" opacity="1" stroke="#002346" stroke-linecap="butt" stroke-linejoin="miter" stroke-width="1"/>
<path d="M405.61 149.31L404.72 169.57" fill="none" opacity="1" stroke="#002346" stroke-linecap="round" stroke-linejoin="round" stroke-width="1"/>
<path d="M409.51 153.62L408.68 170.74" fill="none" opacity="1" stroke="#002346" stroke-linecap="round" stroke-linejoin="round" stroke-width="1"/>
<path d="M357.42 401.08L381.32 503.01" fill="none" opacity="1" stroke="#002346" stroke-linecap="round" stroke-linejoin="round" stroke-width="1"/>
<path d="M401.29 403.36L425.25 532.63" fill="none" opacity="1" stroke="#002346" stroke-linecap="round" stroke-linejoin="round" stroke-width="1"/>
<path d="M435.33 405.33L462.18 526.46" fill="none" opacity="1" stroke="#002346" stroke-linecap="round" stroke-linejoin="round" stroke-width="1"/>
<path d="M472.33 407.33L497.55 520.23" fill="none" opacity="1" stroke="#002346" stroke-linecap="round" stroke-linejoin="round" stroke-width="1"/>
<path d="M531.95 411.46L555.55 510.23" fill="none" opacity="1" stroke="#002346" stroke-linecap="round" stroke-linejoin="round" stroke-width="1"/>
<path d="M500.22 409.08L525.19 514.81" fill="none" opacity="1" stroke="#002346" stroke-linecap="round" stroke-linejoin="round" stroke-width="1"/>
<path d="M566.06 413.32L582.93 504.31" fill="none" opacity="1" stroke="#002346" stroke-linecap="round" stroke-linejoin="round" stroke-width="1"/>
<path d="M605.3 441.55L336.62 441.55" fill="none" opacity="1" stroke="#002346" stroke-linecap="round" stroke-linejoin="round" stroke-width="1"/>
<path d="M604.85 474.37L347.2 488.17" fill="none" opacity="1" stroke="#002346" stroke-linecap="round" stroke-linejoin="round" stroke-width="1"/>
<path d="M268.96 344.77L303.96 357.01C306.42 357.88 309.12 356.58 309.99 354.11C310.01 354.05 310.03 353.99 310.05 353.93L310.05 353.93C310.8 351.49 309.47 348.89 307.05 348.07L272.05 335.8C269.72 334.98 267.15 336.09 266.14 338.35L266.14 338.35C265.08 340.74 266.15 343.54 268.54 344.61C268.68 344.67 268.82 344.72 268.96 344.77Z" fill="#ffffff" fill-rule="nonzero" opacity="1" stroke="#002346" stroke-linecap="butt" stroke-linejoin="miter" stroke-width="1"/>
</g>
</svg>
